<?xml version="1.0" encoding="UTF-8"?>
<svg id="Capa_1" xmlns="http://www.w3.org/2000/svg" version="1.1" viewBox="0 0 81.2 34.7">
  <!-- Generator: Adobe Illustrator 29.2.0, SVG Export Plug-In . SVG Version: 2.1.0 Build 108)  -->
  <path d="M64,21.9c0,.4,0,.9,0,1.3-.2,1.7-1.1,4.1-2.2,5.4s-1.6,1.7-1.5.6.9-2.2,1.1-3,.9-2.7,0-3.2-2.6-.3-3.6-.2-2.1.4-2.4.2-.2-.1-.2-.2c0-.4,1.2-.9,1.5-1.1,1.7-.7,4.1-1,5.9-.6s1.1.2,1.4.8Z"/>
  <path d="M37.2,14.6c.2,0,.2-.2.2-.3,1-3,1.3-6.7,2.3-9.8s.2-.7.8-.8,2-.2,2.3.4l2.6,10.7,2.8-10.6c0-.1.2-.3.3-.4.2-.1,2.1-.2,2.3,0s0,1-.2,1.3c-1.1,3.9-2.6,7.8-3.6,11.7-.2.4-.3.6-.7.6s-2.1.2-2.4-.4l-2.4-10-.2-.3-2.4,10.3c-.2.6-1.6.5-2.2.5s-.7-.2-.9-.7c-1-4-2.6-8-3.6-12s-.4-1,0-1.1,2.5-.2,2.6.3l2.6,10.5Z"/>
  <path d="M17.4,21.9c.2,0,.3,0,.5,0,11.7,6.8,25.6,7.9,38.4,3.5.7-.2,2.2-1,2.8-1.1s1.1.5.6,1.1-2.3,1.6-2.9,1.9c-12,6.6-28.8,5.1-38.9-4.3-.2-.2-1.2-1-.5-1.2Z"/>
  <path d="M28,15.7c-1.6,1.9-4.3,2.8-6.7,1.8s-3-5.6-.3-7.3,4.4-.8,6.7-.4c0-1.2.3-2.3-.5-3.3s-3.4-1.1-4.9-.7-1.9.8-2.2.6c-.2-.5-.2-1.1,0-1.6s2-1.1,2.5-1.2c2-.4,4.4-.6,6.1.8,2.8,2.1,1,7.3,1.7,10.3s.7,1.4.7,1.8-1.4,1.2-1.7,1.2c-.6,0-1.3-1.4-1.4-1.9ZM27.8,11.6c-1.8-.4-5.6-1-5.9,1.7s4.8,3,5.7.5.2-1.5.2-2.2Z"/>
  <path d="M61.1,4.3c.3.3.4,1.8,0,1.9-1.6-.5-3.1-1-4.7-.7-2.4.5-2.3,2.7-.1,3.6s4.9.9,5.7,3.3-1.4,5.3-4.2,5.6-5.1-.1-5.7-1.2-.2-1.7.1-1.8c.8.2,1.6.6,2.5.8,1.3.3,3.9.4,4.7-.9,1.5-2.6-3.2-3.1-4.6-3.7-4.7-2-2.8-7.6,2.2-7.8s3.6.4,4.2,1Z"/>
</svg>