<?xml version="1.0" encoding="UTF-8"?>
<svg id="Capa_1" xmlns="http://www.w3.org/2000/svg" version="1.1" viewBox="0 0 109.3 46.5">
  <!-- Generator: Adobe Illustrator 29.2.0, SVG Export Plug-In . SVG Version: 2.1.0 Build 108)  -->
  <defs>
    <style>
      .st0 {
        fill: #fff;
      }
    </style>
  </defs>
  <polygon class="st0" points="49.3 11 49.3 12.5 34.7 12.5 34.7 22 48.4 22 48.4 23.5 34.7 23.5 34.7 34 49.6 34 49.2 35.5 33.2 35.5 33.2 11 49.3 11"/>
  <polygon class="st0" points="69.9 35.5 68.3 35.2 60.2 24.1 52.3 35 50.5 35.5 59.1 23 51.1 11 52.7 11.3 60.2 21.7 75.3 2 61.3 22.8 69.9 35.5"/>
  <polygon class="st0" points="12.9 11 14.5 11 36.8 44.4 14.4 13.1 14.4 35.5 12.9 35.5 12.9 11"/>
  <polygon class="st0" points="89.3 11 89.3 12.5 80.7 12.5 80.7 35.5 79.2 35 79.2 12.5 70.8 12.5 70.8 11 89.3 11"/>
  <path class="st0" d="M98.9,29.8c-.9.3-1.2-.7-1.7-.9-.8-.2-1.9.5-1,1.3s2.9,0,2.7,2.1-4.1,1.9-3.9-.1c.2-.2,2.3,1.6,3,.6s-1.6-1.4-2.1-1.7c-2.9-1.6,1.8-4.7,3-1.3Z"/>
  <path class="st0" d="M93.8,28.3v4.3c0,0-.5.8-.6.9-.7.5-2.8,0-2.7-.9.2-1.2,1.2.3,1.5.3,2.1.5-.2-4.6,1.8-4.7Z"/>
</svg>