<?xml version="1.0" encoding="UTF-8"?>
<svg id="Capa_1" xmlns="http://www.w3.org/2000/svg" version="1.1" viewBox="0 0 109.3 46.5">
  <!-- Generator: Adobe Illustrator 29.2.0, SVG Export Plug-In . SVG Version: 2.1.0 Build 108)  -->
  <path d="M15.3,14.6c.2-2,2.5-2.3,4.1-2.5s4-.1,5.4.7,1.3,1.1,1.4,1.9c.3,1.8-.1,4.1,0,6-.1,1.3-1.2,2.4-2.5,2.5-1.9.1-5.5-.4-7.1.3s-2.1,1.6-2.1,2.6v3h-2.4c-.3,0-.9-.3-1.2-.5-2.1-1.5-2.1-7.3-.7-9.2s1.6-1.4,2.5-1.4h7.8v-.7h-5.5c0-.9,0-1.9,0-2.7ZM17.6,13.8c-.8.1-1.1,1.2-.5,1.8s1.3.4,1.6-.3-.2-1.7-1.1-1.5Z"/>
  <path d="M29.4,17.9c2.2.3,2.8,3.8,2.9,5.6,0,1.6-.8,5.6-2.9,5.6h-8.6c0,.1,0,.7,0,.7h5.4v2.5c0,0-.2.6-.2.7-.7,1.4-3.3,2-4.8,2.1s-5.7-.6-6-2.9c0-1.9-.2-3.9,0-5.8s1.2-2.5,2.5-2.6c1.9-.1,4,.1,5.8,0s2.5-.9,3-2.1.2-2.6.3-3.8c.8,0,1.6,0,2.4,0ZM23.7,31.2c-1.1.2-1,1.9,0,2.1,1.7.3,1.6-2.3,0-2.1Z"/>
  <path d="M40.6,28.1v6.4s0,0-.1,0c-.2,0-1.6-.6-1.7-.6s0,0,0-.1v-14.2c.4-.4.8-.8,1.3-1,1.4-.8,3.8-1.2,5.4-.6,3,1.1,3.5,6.1,2.3,8.7-1.4,2.9-4.5,3.2-7.1,1.6ZM43,18.9c-.4,0-.8.1-1.2.2s-1.2.4-1.2.6v7c0,.1.3.2.4.3,2.9,1.6,4.9.3,5.1-2.9s-.1-5.6-3.1-5.3Z"/>
  <path d="M52.1,17.6v8.1c0,.4.4,1.1.8,1.4,1.3,1.1,3.5.6,4.7-.4v-8.9h1.8v11.4c-.1,1.6-.2,2.9-1.6,4s-2.9,1.3-4.4,1.3l-.3-1.1c1.6-.3,3.8-.5,4.3-2.4s.2-1.9.2-2.8c-1.7.7-4.1,1.3-5.8.3s-1.7-1.6-1.7-2.8v-7.5c0-.1.2-.2.3-.2.5-.2,1.1-.3,1.6-.5Z"/>
  <path d="M70.5,11.4v7.6c.4-.2.7-.4,1-.6,1.9-.9,4.6-1.1,5.7,1.1s.3.9.3,1.2v8.1h-1.8v-7.5c0-.4-.4-1.3-.7-1.6-1.2-1.4-3.4-.1-4.6.6v8.5h-1.8V12l1.8-.6Z"/>
  <path d="M80.9,27.8c-3-3.1-1.9-9.8,2.9-10.1,7-.5,7.3,10.7,1.1,11.4s-2.9-.2-4-1.3ZM83.9,18.9c-3.3.4-3.2,5.9-1.8,7.9s3.5,1.4,4.5-.3,1-8.1-2.7-7.6Z"/>
  <path d="M99.8,28.9h-1.9v-7.9c0-.2-.3-.9-.5-1.1-1.1-1.4-3.4-1-4.7,0v9.2h-1.9v-9.4c1.9-1.6,5.6-2.7,7.7-1.2s1.2,1.2,1.2,2v8.5Z"/>
  <path d="M64.5,14.2v3.7h2s0,0,0,0v1.1h-2.1v7.3c0,.1.1.6.2.7.3.8,1.2.9,1.9.9v1c-1.8.2-3.8-.4-3.9-2.5v-7.4s-1.3,0-1.3,0c0-.2,0-1.2,0-1.2h1.2v-3l1.8-.6Z"/>
</svg>