<svg width="191" height="49" viewBox="0 0 191 49" fill="none" xmlns="http://www.w3.org/2000/svg">
<path d="M61.042 38.1278L63.4252 32.5764C66.0007 34.504 69.4218 35.5063 72.8045 35.5063C75.3031 35.5063 76.8791 34.5425 76.8791 33.0775C76.8407 28.991 61.9261 32.1909 61.8108 21.9361C61.7723 16.7316 66.3851 12.7222 72.9198 12.7222C76.8022 12.7222 80.6846 13.686 83.4523 15.8834L81.2228 21.5505C78.6858 19.9314 75.5337 18.7748 72.5354 18.7748C70.4981 18.7748 69.1527 19.7386 69.1527 20.9723C69.1912 24.9817 84.2211 22.7842 84.3748 32.5764C84.3748 37.8965 79.8774 41.6361 73.4195 41.6361C68.6915 41.6361 64.3478 40.5181 61.042 38.1278Z" fill="black"/>
<path d="M152.49 30.5717C151.298 32.6535 149.069 34.0799 146.493 34.0799C142.688 34.0799 139.613 30.9958 139.613 27.1791C139.613 23.3625 142.688 20.2783 146.493 20.2783C149.069 20.2783 151.298 21.7048 152.49 23.7866L159.063 20.1241C156.603 15.7292 151.875 12.7222 146.493 12.7222C138.536 12.7222 132.078 19.1989 132.078 27.1791C132.078 35.1594 138.536 41.6361 146.493 41.6361C151.913 41.6361 156.603 38.6676 159.063 34.2341L152.49 30.5717Z" fill="black"/>
<path d="M95.9067 0.732544H87.6807V41.0963H95.9067V0.732544Z" fill="black"/>
<path d="M162.292 0.732544V41.0963H170.518V28.9911L180.282 41.0963H190.814L178.398 26.7165L189.891 13.3004H179.82L170.518 24.4419V0.732544H162.292Z" fill="black"/>
<path d="M120.354 30.6488C119.163 32.6149 116.703 34.0799 113.935 34.0799C110.129 34.0799 107.054 30.9958 107.054 27.1791C107.054 23.3625 110.129 20.2783 113.935 20.2783C116.703 20.2783 119.163 21.8204 120.354 23.8251V30.6488ZM120.354 13.3004V16.5774C119.009 14.3028 115.665 12.7222 112.167 12.7222C104.94 12.7222 99.251 19.1218 99.251 27.1406C99.251 35.1593 104.94 41.6361 112.167 41.6361C115.665 41.6361 119.009 40.0554 120.354 37.7809V41.0578H128.58V13.3004H120.354Z" fill="black"/>
<path d="M10.1865 30.6102C10.1865 33.4245 7.91857 35.699 5.11248 35.699C2.30639 35.699 0.0384521 33.4245 0.0384521 30.6102C0.0384521 27.7959 2.30639 25.5214 5.11248 25.5214H10.1865V30.6102Z" fill="black"/>
<path d="M12.7235 30.6102C12.7235 27.7959 14.9914 25.5214 17.7975 25.5214C20.6036 25.5214 22.8716 27.7959 22.8716 30.6102V43.3323C22.8716 46.1466 20.6036 48.4212 17.7975 48.4212C14.9914 48.4212 12.7235 46.1466 12.7235 43.3323V30.6102Z" fill="black"/>
<path d="M17.7975 10.1777C14.9914 10.1777 12.7235 7.90313 12.7235 5.08885C12.7235 2.27456 14.9914 0 17.7975 0C20.6036 0 22.8716 2.27456 22.8716 5.08885V10.1777H17.7975Z" fill="black"/>
<path d="M17.7975 12.7606C20.6036 12.7606 22.8716 15.0352 22.8716 17.8495C22.8716 20.6638 20.6036 22.9383 17.7975 22.9383H5.07403C2.26794 22.9383 0 20.6638 0 17.8495C0 15.0352 2.26794 12.7606 5.07403 12.7606H17.7975Z" fill="black"/>
<path d="M38.132 17.8495C38.132 15.0352 40.3999 12.7606 43.206 12.7606C46.0121 12.7606 48.28 15.0352 48.28 17.8495C48.28 20.6638 46.0121 22.9383 43.206 22.9383H38.132V17.8495Z" fill="black"/>
<path d="M35.595 17.8495C35.595 20.6638 33.327 22.9384 30.5209 22.9384C27.7148 22.9384 25.4469 20.6638 25.4469 17.8495V5.08885C25.4469 2.27456 27.7148 0 30.5209 0C33.327 0 35.595 2.27456 35.595 5.08885V17.8495Z" fill="black"/>
<path d="M30.5209 38.2435C33.327 38.2435 35.595 40.5181 35.595 43.3324C35.595 46.1467 33.327 48.4212 30.5209 48.4212C27.7148 48.4212 25.4469 46.1467 25.4469 43.3324V38.2435H30.5209Z" fill="black"/>
<path d="M30.5209 35.699C27.7148 35.699 25.4469 33.4245 25.4469 30.6102C25.4469 27.7959 27.7148 25.5214 30.5209 25.5214H43.2444C46.0505 25.5214 48.3185 27.7959 48.3185 30.6102C48.3185 33.4245 46.0505 35.699 43.2444 35.699H30.5209Z" fill="black"/>
</svg>
