<?xml version="1.0" encoding="UTF-8"?>
<svg id="Capa_1" xmlns="http://www.w3.org/2000/svg" version="1.1" viewBox="0 0 109.3 46.5">
  <!-- Generator: Adobe Illustrator 29.2.0, SVG Export Plug-In . SVG Version: 2.1.0 Build 108)  -->
  <defs>
    <style>
      .st0 {
        fill: #fff;
      }
    </style>
  </defs>
  <path class="st0" d="M18.4,8l.5.2,10.3,17.6,10.1-17.6.5-.2c2.3,0,4.6,0,6.9,0v.4s-17.6,30.2-17.6,30.2L11.2,8.3c0-.3,0-.2.2-.2,1.9-.3,5,0,7,0Z"/>
  <path class="st0" d="M29.2,26.8l-11.4-18.7h.6c.6,0,1.2,0,1.8,0,1.5,0,3.1,0,4.7,0h.2s3.9,6.4,3.9,6.4c1.1-1.6,2.1-3.3,3.1-4.9.3-.5.5-.9.8-1.4v-.2c0,0,.3,0,.3,0,1.6,0,3.3,0,4.9,0h1.8s.6,0,.6,0l-11.2,18.7ZM19,8.7l10.2,16.7,10-16.7h-1.2c-1.6,0-3.2,0-4.7,0-.2.4-.5.8-.7,1.2-1,1.8-2.1,3.7-3.4,5.4l-.3.4-4.2-7c-1.5,0-3,0-4.4,0-.4,0-.8,0-1.2,0Z"/>
  <path class="st0" d="M57.1,27l3.9-13.4c.6-.6,1.5-.2,1.9.5l-4.8,15.5c-.7.8-2,.7-2.4-.3l-4.7-15.1c0-.8,1.6-1.2,1.9-.5,1.4,4,2.3,8.3,3.6,12.3s.2.9.5,1Z"/>
  <path class="st0" d="M71.9,19.5v7.3c0,1.5-2.6,3.3-4,3.4-2.1.2-4.5-1.4-4.9-3.5s-.2-5.6,0-6.9,1.2-.9,1.7-.2c.5,2.1-.7,6.6.9,8.1s4,.5,4.4-1.5-.3-5.7.2-6.6,1.2-.3,1.7-.2Z"/>
  <path class="st0" d="M93.7,19c.9-.1,4.6,0,3.9,1.5s-1.6,0-2.4,0-2.6,0-2.8,1.2c-.3,1.9,2.9,2,4.1,2.6,2.6,1.4,1.7,5.2-1.1,5.6s-4.7,0-4.9-1.5,1.7-.3,2.3-.1c1.5.4,3.9.3,3.4-1.8s-3.1-1.4-4.1-2c-2.6-1.6-1.4-5.1,1.5-5.5Z"/>
  <path class="st0" d="M89.1,32.1c0,.5-.7,2-1.1,2.3-.6.5-2.6,1.1-2.9.2-.5-1.7,1.6-.9,2-1.9s.2-1,.2-1.1v-12.1c0-.5,1.8-.5,1.8,0v12.6Z"/>
  <path class="st0" d="M84.2,27.7c1.9-.4,2.1,2.6,0,2.2s-1.1-2,0-2.2Z"/>
  <path class="st0" d="M89,15.9c-.9.9-2.7-.2-1.8-1.4s3,.2,1.8,1.4Z"/>
  <path class="st0" d="M81.3,25.1c.5,0,1.1-.9,1.2-1.4.9-5.5-8.4-6.5-9-.8-.4,4.3,1.2,7.6,6,7.2.9,0,3.4-.8,2.7-2.1-.4-.9-2.1.4-2.9.5-2.3.3-4.1-.9-3.8-3.4h5.7ZM75.4,23.8c-.2-2.2,1.8-4.1,3.9-3,1,.5,1.9,3,.8,3h-4.7Z"/>
</svg>